<svg 
 xmlns="http://www.w3.org/2000/svg"
 xmlns:xlink="http://www.w3.org/1999/xlink"
 width="57px" height="49px">
<path fill-rule="evenodd"  fill="rgb(142, 170, 65)"
 d="M54.769,25.745 C54.566,25.797 54.360,25.830 54.151,25.844 L54.149,30.287 C55.826,30.709 56.999,32.206 56.999,33.922 C56.999,35.638 55.825,37.135 54.149,37.557 L54.149,43.345 C54.145,46.466 51.595,48.996 48.448,48.999 L8.552,48.999 C5.405,48.996 2.855,46.466 2.851,43.345 L2.851,37.557 C1.175,37.135 0.001,35.637 0.001,33.922 C0.001,32.206 1.175,30.709 2.851,30.287 L2.851,25.845 C2.642,25.831 2.434,25.797 2.231,25.745 C1.292,25.484 0.541,24.784 0.218,23.870 C0.051,23.403 -0.021,22.908 0.006,22.413 C0.159,20.369 1.897,18.802 3.962,18.845 L4.031,18.845 C6.890,7.756 16.961,-0.001 28.500,-0.001 C40.039,-0.001 50.110,7.756 52.968,18.845 L53.037,18.845 C55.103,18.802 56.841,20.369 56.994,22.413 C57.021,22.908 56.949,23.404 56.782,23.872 C56.458,24.784 55.707,25.484 54.769,25.745 ZM53.199,35.807 C54.248,35.807 55.099,34.963 55.099,33.922 C55.099,32.881 54.248,32.037 53.199,32.037 L45.599,32.037 L45.599,35.807 L53.199,35.807 ZM38.949,30.152 C39.201,30.152 39.443,30.252 39.621,30.428 C39.800,30.605 39.900,30.845 39.899,31.095 L39.899,37.690 C39.899,38.732 40.750,39.575 41.799,39.575 C42.849,39.575 43.699,38.732 43.699,37.690 L43.699,31.095 C43.699,30.845 43.799,30.605 43.977,30.428 C44.155,30.252 44.397,30.152 44.649,30.152 L52.249,30.152 L52.252,25.498 C52.043,25.393 51.845,25.268 51.662,25.125 C51.513,25.011 51.353,24.913 51.185,24.830 C51.128,24.801 51.069,24.776 51.010,24.750 C50.899,24.704 50.786,24.664 50.670,24.631 C50.596,24.610 50.524,24.585 50.448,24.569 C50.288,24.536 50.127,24.516 49.964,24.509 L49.963,24.509 C48.960,24.500 48.032,25.033 47.541,25.900 C46.703,27.367 45.131,28.270 43.432,28.261 C43.415,28.261 43.400,28.265 43.384,28.265 C41.637,28.311 39.999,27.424 39.094,25.941 C38.951,25.712 38.778,25.504 38.581,25.320 C38.574,25.313 38.565,25.309 38.558,25.303 C38.187,24.963 37.735,24.720 37.245,24.597 C37.173,24.580 37.096,24.580 37.022,24.567 C36.863,24.535 36.701,24.516 36.538,24.510 C35.581,24.545 34.710,25.072 34.241,25.900 C33.190,27.769 30.239,28.268 28.662,28.268 C28.647,28.268 28.592,28.266 28.562,28.266 C28.543,28.266 28.519,28.268 28.500,28.268 C27.807,28.261 27.116,28.183 26.439,28.034 C26.425,28.031 26.411,28.030 26.396,28.026 C26.213,27.985 26.030,27.932 25.845,27.878 C25.781,27.860 25.715,27.847 25.650,27.826 L25.650,30.152 L38.949,30.152 ZM25.650,32.037 L25.650,35.807 L38.000,35.807 L38.000,32.037 L25.650,32.037 ZM4.751,43.345 C4.753,45.425 6.454,47.112 8.552,47.115 L48.448,47.115 C50.546,47.112 52.247,45.425 52.249,43.345 L52.249,43.345 L52.249,37.691 L45.599,37.691 C45.599,39.773 43.898,41.460 41.799,41.460 C39.701,41.460 37.999,39.773 37.999,37.691 L25.650,37.691 L25.650,40.519 C25.650,42.601 23.949,44.288 21.850,44.288 C19.752,44.288 18.050,42.601 18.050,40.519 L18.050,37.692 L4.751,37.691 L4.751,43.345 ZM23.750,40.518 L23.750,26.856 C23.687,26.805 23.639,26.747 23.581,26.693 C23.500,26.619 23.417,26.548 23.344,26.466 C23.181,26.295 23.039,26.105 22.921,25.900 C22.435,25.045 21.527,24.512 20.538,24.501 C19.467,24.490 18.468,25.036 17.906,25.941 C17.781,26.138 17.642,26.326 17.491,26.505 L17.480,26.520 C17.442,26.567 17.402,26.607 17.363,26.647 C17.280,26.736 17.209,26.810 17.140,26.879 C17.105,26.913 17.071,26.948 17.035,26.980 C17.021,26.994 17.007,27.008 16.993,27.021 C16.945,27.064 16.895,27.104 16.844,27.144 C16.811,27.170 16.788,27.185 16.757,27.209 C16.672,27.277 16.587,27.344 16.498,27.405 C16.483,27.416 16.465,27.432 16.450,27.442 L16.307,27.529 C16.276,27.548 16.252,27.561 16.224,27.578 C16.122,27.639 16.019,27.697 15.913,27.749 C15.898,27.757 15.882,27.766 15.867,27.774 C15.817,27.798 15.760,27.823 15.703,27.847 L15.687,27.854 C15.542,27.917 15.395,27.973 15.245,28.022 L15.236,28.025 C15.229,28.028 15.136,28.056 15.130,28.058 L15.119,28.061 C14.836,28.148 14.545,28.209 14.250,28.242 L14.250,31.095 C14.250,32.136 15.101,32.980 16.150,32.980 C17.200,32.980 18.050,32.136 18.050,31.095 C18.050,30.574 18.476,30.152 19.000,30.152 C19.525,30.152 19.950,30.575 19.950,31.095 L19.950,36.749 L19.950,40.518 C19.950,41.559 20.801,42.403 21.850,42.403 C22.900,42.403 23.750,41.559 23.750,40.518 ZM1.901,33.922 C1.902,34.962 2.752,35.805 3.801,35.807 L18.051,35.807 L18.051,34.358 C17.263,34.815 16.333,34.970 15.438,34.793 C15.363,34.779 15.292,34.754 15.219,34.736 C15.066,34.699 14.916,34.653 14.769,34.597 C14.688,34.566 14.611,34.529 14.533,34.492 C14.402,34.431 14.275,34.363 14.153,34.287 C14.078,34.241 14.006,34.195 13.936,34.144 C13.817,34.059 13.703,33.965 13.595,33.866 C13.536,33.812 13.475,33.762 13.419,33.704 C13.298,33.578 13.186,33.443 13.083,33.301 C13.054,33.260 13.019,33.224 12.990,33.183 C12.865,32.995 12.756,32.797 12.666,32.591 C12.640,32.532 12.625,32.469 12.602,32.409 C12.552,32.287 12.508,32.163 12.471,32.037 L3.801,32.038 L3.798,32.037 C2.750,32.040 1.902,32.883 1.901,33.922 ZM12.351,30.152 L12.351,28.065 C11.190,27.727 10.209,26.949 9.621,25.900 C9.229,25.199 8.542,24.707 7.747,24.558 C7.567,24.525 7.384,24.509 7.201,24.509 C6.583,24.531 5.988,24.747 5.500,25.125 C5.270,25.303 5.019,25.451 4.751,25.565 L4.751,30.152 L12.351,30.152 ZM28.500,1.884 C18.015,1.907 8.820,8.833 5.982,18.845 L51.018,18.845 C48.180,8.833 38.985,1.907 28.500,1.884 ZM53.038,20.730 L3.962,20.730 C2.912,20.700 2.016,21.476 1.904,22.512 C1.889,22.759 1.925,23.007 2.009,23.241 C2.126,23.583 2.409,23.843 2.761,23.935 C3.249,24.062 3.769,23.954 4.164,23.644 C5.025,22.975 6.088,22.614 7.181,22.621 C7.551,22.609 7.921,22.639 8.284,22.710 C9.621,22.972 10.776,23.803 11.443,24.982 C11.862,25.721 12.602,26.224 13.447,26.345 C13.455,26.347 13.462,26.352 13.470,26.353 C13.498,26.356 13.524,26.364 13.552,26.365 C13.631,26.373 13.710,26.377 13.790,26.375 L13.809,26.375 C14.010,26.369 14.209,26.344 14.404,26.299 C14.461,26.286 14.512,26.274 14.561,26.260 L14.585,26.253 C14.759,26.201 14.927,26.133 15.087,26.050 C15.149,26.018 15.210,25.986 15.270,25.949 L15.271,25.950 C15.443,25.846 15.604,25.726 15.752,25.590 C15.789,25.555 15.825,25.518 15.861,25.479 C16.023,25.317 16.168,25.139 16.292,24.946 L16.294,24.943 C16.333,24.882 16.378,24.829 16.419,24.770 C16.501,24.651 16.581,24.529 16.672,24.419 C16.741,24.335 16.818,24.262 16.891,24.183 C16.962,24.106 17.029,24.026 17.105,23.954 C17.178,23.885 17.259,23.825 17.337,23.760 C17.420,23.690 17.501,23.616 17.588,23.552 C17.660,23.500 17.737,23.457 17.811,23.409 C17.912,23.343 18.011,23.275 18.117,23.216 C18.182,23.180 18.252,23.153 18.318,23.120 C18.439,23.061 18.559,23.001 18.685,22.952 C18.744,22.929 18.806,22.912 18.866,22.892 C19.004,22.844 19.141,22.797 19.283,22.762 C19.343,22.747 19.405,22.740 19.466,22.727 C19.610,22.697 19.754,22.669 19.901,22.651 C19.975,22.643 20.051,22.642 20.127,22.637 C20.238,22.630 20.348,22.616 20.462,22.616 C20.502,22.616 20.544,22.616 20.585,22.617 C22.247,22.642 23.769,23.543 24.580,24.982 C24.737,25.228 24.953,25.432 25.208,25.576 C25.956,25.992 26.784,26.248 27.638,26.328 C27.670,26.331 27.702,26.336 27.733,26.339 C27.988,26.367 28.244,26.382 28.500,26.384 C30.040,26.384 31.927,25.860 32.420,24.982 C33.231,23.543 34.753,22.642 36.415,22.617 C36.456,22.616 36.497,22.623 36.538,22.623 L36.547,22.622 C36.562,22.622 36.577,22.625 36.592,22.625 C37.832,22.638 39.020,23.122 39.913,23.975 C39.925,23.986 39.935,24.000 39.947,24.011 C40.084,24.142 40.212,24.281 40.333,24.427 C40.468,24.590 40.592,24.762 40.705,24.941 C41.181,25.704 41.978,26.213 42.874,26.328 C43.033,26.357 43.194,26.374 43.355,26.378 L43.361,26.378 C44.341,26.359 45.238,25.828 45.720,24.982 C46.387,23.803 47.541,22.972 48.879,22.710 C49.762,22.536 50.676,22.608 51.520,22.917 L51.522,22.918 C51.728,22.995 51.929,23.086 52.123,23.190 C52.174,23.216 52.224,23.243 52.273,23.272 C52.460,23.378 52.639,23.496 52.810,23.626 C52.818,23.632 52.827,23.636 52.835,23.642 C52.848,23.652 52.862,23.658 52.875,23.667 C52.960,23.731 53.051,23.786 53.147,23.832 C53.173,23.844 53.201,23.851 53.228,23.862 C53.547,23.998 53.903,24.023 54.239,23.935 C54.591,23.843 54.873,23.584 54.991,23.243 C55.075,23.009 55.110,22.760 55.096,22.512 C54.984,21.476 54.087,20.700 53.038,20.730 ZM15.872,10.641 L17.772,12.526 C18.139,12.895 18.137,13.488 17.768,13.854 C17.398,14.221 16.801,14.222 16.429,13.858 L14.529,11.973 C14.162,11.605 14.164,11.012 14.534,10.646 C14.903,10.280 15.500,10.278 15.872,10.641 ZM23.078,4.988 C23.450,4.624 24.048,4.627 24.417,4.992 C24.786,5.358 24.788,5.951 24.422,6.320 L22.522,8.204 C22.282,8.445 21.931,8.541 21.602,8.454 C21.272,8.367 21.015,8.112 20.928,7.785 C20.840,7.458 20.936,7.110 21.179,6.873 L23.078,4.988 ZM27.828,12.526 C28.200,12.163 28.798,12.165 29.167,12.531 C29.536,12.896 29.538,13.490 29.172,13.858 L27.272,15.743 C27.032,15.984 26.681,16.079 26.351,15.992 C26.022,15.905 25.765,15.650 25.677,15.323 C25.590,14.996 25.686,14.649 25.928,14.411 L27.828,12.526 ZM32.971,6.873 L34.871,8.757 C35.238,9.126 35.236,9.719 34.867,10.085 C34.498,10.451 33.900,10.453 33.528,10.089 L31.628,8.204 C31.262,7.836 31.264,7.243 31.633,6.877 C32.002,6.511 32.600,6.509 32.971,6.873 ZM40.571,11.584 L42.471,13.469 C42.838,13.837 42.836,14.430 42.466,14.796 C42.097,15.163 41.499,15.164 41.128,14.801 L39.228,12.916 C38.861,12.547 38.863,11.954 39.232,11.589 C39.601,11.223 40.199,11.220 40.571,11.584 ZM11.122,44.012 C10.883,44.252 10.532,44.347 10.202,44.261 C9.873,44.174 9.615,43.919 9.528,43.592 C9.440,43.265 9.536,42.917 9.779,42.680 L11.679,40.795 C12.051,40.431 12.649,40.433 13.018,40.800 C13.387,41.165 13.389,41.758 13.022,42.127 L11.122,44.012 ZM32.021,40.795 L33.921,42.680 C34.288,43.048 34.286,43.641 33.917,44.007 C33.548,44.373 32.950,44.375 32.578,44.012 L30.678,42.127 C30.312,41.758 30.314,41.165 30.683,40.800 C31.052,40.433 31.650,40.431 32.021,40.795 ZM47.777,41.737 C48.149,41.370 48.749,41.370 49.119,41.738 C49.490,42.106 49.490,42.702 49.121,43.070 L47.221,44.954 C47.043,45.131 46.801,45.230 46.549,45.230 C46.297,45.230 46.056,45.131 45.878,44.954 C45.699,44.777 45.599,44.538 45.599,44.288 C45.599,44.038 45.699,43.799 45.878,43.622 L47.777,41.737 Z"/>
</svg>