<svg 
 xmlns="http://www.w3.org/2000/svg"
 xmlns:xlink="http://www.w3.org/1999/xlink"
 width="52px" height="54px">
<path fill-rule="evenodd"  fill="rgb(79, 177, 201)"
 d="M33.250,53.997 C29.582,53.997 26.168,52.920 23.276,51.087 L7.990,51.087 C7.986,51.087 7.982,51.085 7.978,51.085 C7.971,51.085 7.966,51.087 7.960,51.087 C7.826,51.087 7.692,51.060 7.565,51.006 L0.602,48.000 C0.236,47.842 -0.002,47.480 -0.002,47.080 L-0.002,1.003 C-0.002,0.449 0.445,0.001 0.996,0.001 L7.960,0.001 C7.965,0.001 7.970,0.004 7.975,0.004 C7.979,0.004 7.984,0.001 7.990,0.001 L38.927,0.001 C39.478,0.001 39.926,0.449 39.926,1.003 L39.926,15.301 C40.220,15.130 40.559,15.026 40.924,15.026 L42.920,15.026 C44.021,15.026 44.916,15.925 44.916,17.029 C44.916,17.117 44.905,17.204 44.882,17.288 L41.438,30.250 C45.839,30.793 52.002,32.087 52.002,35.076 L52.002,35.181 C52.002,45.557 43.589,53.997 33.250,53.997 ZM6.961,2.004 L1.994,2.004 L1.994,46.420 L6.961,48.564 L6.961,2.004 ZM21.480,47.130 C21.808,47.457 22.152,47.769 22.507,48.067 C22.604,48.150 22.706,48.227 22.805,48.306 C23.077,48.524 23.358,48.733 23.643,48.935 C23.767,49.022 23.889,49.112 24.015,49.197 C26.666,50.961 29.839,51.994 33.251,51.994 C41.607,51.994 48.534,45.817 49.784,37.776 C45.951,39.774 38.032,40.378 33.250,40.378 C28.468,40.378 20.549,39.774 16.716,37.776 C16.753,38.009 16.777,38.244 16.822,38.474 C16.841,38.563 16.862,38.650 16.881,38.738 C16.976,39.180 17.087,39.616 17.217,40.044 C17.235,40.103 17.250,40.164 17.269,40.224 C17.416,40.694 17.587,41.156 17.775,41.608 C17.807,41.685 17.841,41.762 17.874,41.840 C18.275,42.768 18.755,43.653 19.309,44.487 C19.342,44.538 19.376,44.589 19.410,44.639 C19.693,45.057 19.994,45.461 20.313,45.851 C20.330,45.872 20.349,45.893 20.367,45.914 C20.663,46.272 20.976,46.613 21.300,46.944 C21.360,47.007 21.419,47.069 21.480,47.130 ZM37.929,2.004 L8.988,2.004 L8.988,49.084 L20.625,49.084 C20.518,48.986 20.426,48.876 20.319,48.778 C20.086,48.554 19.861,48.325 19.639,48.090 C19.420,47.856 19.203,47.621 18.997,47.379 C18.809,47.159 18.631,46.931 18.454,46.701 C18.245,46.432 18.038,46.164 17.845,45.884 C17.687,45.656 17.541,45.419 17.393,45.182 C17.211,44.891 17.026,44.601 16.859,44.301 C16.719,44.047 16.595,43.783 16.466,43.523 C16.319,43.226 16.168,42.933 16.037,42.630 C15.909,42.333 15.802,42.024 15.689,41.720 C15.586,41.439 15.472,41.163 15.381,40.877 C15.267,40.517 15.180,40.147 15.088,39.779 C15.027,39.532 14.951,39.292 14.899,39.043 C14.807,38.605 14.747,38.156 14.687,37.708 C14.661,37.517 14.620,37.330 14.600,37.139 C14.534,36.496 14.498,35.843 14.498,35.182 L14.498,35.078 C14.498,30.883 26.763,29.775 33.250,29.775 C34.012,29.775 34.760,29.790 35.496,29.813 L37.929,20.655 L37.929,2.004 ZM40.923,32.210 L40.546,33.661 C40.430,34.111 40.024,34.410 39.581,34.410 C39.498,34.410 39.413,34.399 39.330,34.378 C38.796,34.237 38.476,33.690 38.615,33.156 L39.210,30.863 C39.210,30.863 39.211,30.862 39.211,30.859 C39.211,30.859 39.211,30.859 39.211,30.858 L42.885,17.029 L40.924,17.029 C40.924,17.117 40.913,17.204 40.891,17.288 L37.220,31.101 L36.731,33.050 C36.617,33.504 36.210,33.808 35.764,33.808 C35.683,33.808 35.601,33.799 35.520,33.778 C34.984,33.642 34.660,33.099 34.795,32.562 L34.982,31.816 C34.407,31.802 33.841,31.779 33.250,31.779 C22.195,31.779 16.494,34.091 16.494,35.078 C16.494,36.064 22.195,38.376 33.250,38.376 C44.305,38.376 50.005,36.064 50.005,35.078 C50.005,34.599 47.736,33.016 40.923,32.210 ZM33.936,36.061 C33.386,36.061 32.938,36.510 32.938,37.063 L30.942,37.063 C30.942,35.406 32.285,34.058 33.936,34.058 C35.587,34.058 36.931,35.406 36.931,37.063 L34.935,37.063 C34.935,36.510 34.486,36.061 33.936,36.061 ZM25.951,35.059 C25.401,35.059 24.953,35.508 24.953,36.061 L22.956,36.061 C22.956,34.405 24.300,33.056 25.951,33.056 C27.602,33.056 28.945,34.405 28.945,36.061 L26.949,36.061 C26.949,35.508 26.501,35.059 25.951,35.059 ZM28.605,25.272 L24.954,25.272 C24.403,25.272 23.956,24.825 23.956,24.271 L23.956,20.607 C23.956,20.451 23.967,20.299 23.978,20.147 L23.655,20.471 C23.460,20.666 23.205,20.765 22.949,20.765 C22.694,20.765 22.438,20.666 22.244,20.471 L21.936,20.163 C21.946,20.309 21.958,20.457 21.958,20.605 L21.958,24.270 C21.958,24.824 21.511,25.271 20.960,25.271 L20.960,25.270 L17.309,25.270 C13.818,25.270 10.978,22.420 10.978,18.918 L10.978,15.254 C10.978,14.700 11.425,14.252 11.976,14.252 L15.628,14.252 C16.448,14.252 17.230,14.414 17.949,14.701 C17.524,12.670 18.092,10.469 19.660,8.896 L22.244,6.306 C22.634,5.914 23.265,5.914 23.655,6.306 L26.237,8.897 C27.807,10.472 28.374,12.676 27.947,14.709 C28.672,14.418 29.460,14.254 30.286,14.254 L33.937,14.254 C34.488,14.254 34.936,14.701 34.936,15.255 L34.936,18.921 C34.936,22.423 32.096,25.272 28.605,25.272 ZM15.628,16.256 L12.974,16.256 L12.974,18.920 C12.974,21.317 14.919,23.268 17.309,23.268 L19.962,23.268 L19.962,20.605 C19.962,18.207 18.017,16.256 15.628,16.256 ZM24.825,10.312 L22.948,8.429 L21.072,10.312 C19.383,12.007 19.383,14.767 21.072,16.462 L22.948,18.346 L24.825,16.462 C26.514,14.767 26.514,12.007 24.825,10.312 ZM32.938,16.256 L30.285,16.256 C27.895,16.256 25.951,18.207 25.951,20.605 L25.951,23.268 L28.604,23.268 C30.994,23.268 32.938,21.318 32.938,18.920 L32.938,16.256 Z"/>
</svg>