<svg 
 xmlns="http://www.w3.org/2000/svg"
 xmlns:xlink="http://www.w3.org/1999/xlink"
 width="53px" height="57px">
<path fill-rule="evenodd"  fill="rgb(242, 55, 77)"
 d="M52.999,31.867 C52.999,32.684 52.836,33.500 52.523,34.301 L52.525,34.303 L47.668,46.278 C44.542,52.057 41.856,53.554 36.023,55.819 C34.005,56.604 31.150,56.996 28.293,56.996 C25.436,56.996 22.576,56.604 20.544,55.820 C14.722,53.577 12.033,52.076 8.845,46.184 L8.797,46.081 L5.016,36.719 C3.733,35.194 3.076,33.563 3.076,31.866 C3.076,29.533 4.329,27.297 6.706,25.364 C6.637,24.986 6.602,24.606 6.602,24.229 C6.602,23.447 6.760,22.657 7.068,21.873 C6.809,21.662 6.558,21.441 6.319,21.199 C2.396,17.256 1.985,11.251 5.404,7.814 L6.319,6.893 C7.132,6.076 8.091,5.484 9.132,5.100 C8.821,4.615 8.423,4.129 7.885,3.707 C6.329,2.486 4.088,2.091 1.227,2.531 C0.686,2.617 0.168,2.240 0.085,1.689 C0.001,1.140 0.377,0.627 0.923,0.542 C4.368,0.009 7.134,0.548 9.145,2.142 C10.098,2.897 10.742,3.787 11.179,4.622 C14.062,4.316 17.232,5.400 19.635,7.815 C20.015,8.197 20.352,8.612 20.657,9.044 C22.922,8.477 25.444,8.152 28.027,8.125 C29.079,8.116 29.745,7.867 30.009,7.387 C30.621,6.275 29.510,3.773 28.876,2.737 C28.696,2.442 28.679,2.073 28.832,1.761 C28.986,1.451 29.287,1.241 29.630,1.207 C33.343,0.836 36.422,1.750 38.791,3.919 C42.990,7.767 43.606,14.363 43.694,16.413 C47.427,18.507 49.473,21.268 49.473,24.230 C49.473,24.606 49.438,24.986 49.369,25.364 C51.747,27.297 52.999,29.535 52.999,31.867 ZM6.819,35.828 C6.820,35.828 6.820,35.829 6.820,35.831 L10.633,45.273 C13.513,50.579 15.720,51.805 21.262,53.942 C24.819,55.314 31.775,55.313 35.302,53.943 C40.856,51.785 43.063,50.561 45.883,45.367 L50.132,34.879 C49.818,34.700 49.479,34.603 49.124,34.578 C49.060,34.573 48.993,34.578 48.927,34.578 C48.809,34.578 48.694,34.575 48.575,34.587 C48.490,34.597 48.404,34.614 48.318,34.630 C48.216,34.647 48.115,34.663 48.011,34.688 C47.915,34.711 47.820,34.743 47.724,34.772 C47.629,34.802 47.534,34.830 47.439,34.865 C47.340,34.903 47.239,34.945 47.139,34.987 C47.047,35.026 46.956,35.064 46.865,35.107 C46.763,35.154 46.662,35.206 46.561,35.259 C46.473,35.304 46.386,35.350 46.299,35.398 C46.198,35.455 46.097,35.513 45.998,35.574 C45.913,35.625 45.829,35.676 45.745,35.730 C45.646,35.793 45.550,35.855 45.455,35.919 C45.373,35.974 45.292,36.030 45.212,36.086 C45.121,36.150 45.030,36.214 44.942,36.279 C44.860,36.340 44.781,36.399 44.702,36.460 C44.621,36.520 44.541,36.581 44.464,36.643 C44.381,36.709 44.302,36.774 44.223,36.838 C44.157,36.892 44.090,36.945 44.028,36.998 C43.941,37.070 43.861,37.140 43.781,37.210 C43.734,37.251 43.685,37.293 43.640,37.332 C43.544,37.418 43.455,37.498 43.371,37.575 C43.351,37.593 43.328,37.613 43.308,37.631 C43.100,37.823 42.935,37.984 42.826,38.093 C42.826,38.094 42.825,38.094 42.825,38.094 L42.119,38.796 L41.414,38.091 C41.251,37.928 41.078,37.796 40.899,37.677 C38.690,36.220 35.429,38.117 33.649,39.898 L32.943,40.603 L32.237,39.898 C30.095,37.757 26.611,37.757 24.471,39.898 L23.768,40.601 L23.062,39.902 C21.114,37.973 17.411,35.902 15.195,38.095 L14.492,38.790 L13.789,38.095 C12.954,37.269 8.905,33.472 6.433,34.875 L6.819,35.828 ZM20.372,14.146 C20.313,12.960 19.978,11.777 19.340,10.701 C19.338,10.698 19.339,10.694 19.337,10.692 C19.026,10.170 18.658,9.678 18.218,9.237 C16.468,7.476 14.232,6.569 12.139,6.569 C12.066,6.569 11.996,6.587 11.923,6.588 C12.048,7.104 12.080,7.447 12.084,7.490 C12.130,8.045 11.722,8.531 11.170,8.577 C11.142,8.580 11.114,8.581 11.086,8.581 C10.572,8.581 10.136,8.186 10.090,7.663 C10.088,7.644 10.052,7.360 9.944,6.949 C9.124,7.237 8.368,7.681 7.735,8.317 L6.820,9.237 C4.182,11.889 4.593,16.616 7.735,19.775 C8.083,20.125 8.462,20.437 8.863,20.707 C8.865,20.709 8.869,20.709 8.872,20.711 C9.229,20.950 9.600,21.150 9.981,21.319 C9.997,21.326 10.013,21.335 10.029,21.343 C10.397,21.504 10.777,21.628 11.160,21.725 C11.196,21.734 11.232,21.743 11.268,21.753 C11.651,21.842 12.038,21.903 12.427,21.931 C12.456,21.933 12.484,21.933 12.513,21.935 C13.736,22.010 14.969,21.784 16.092,21.262 C16.111,21.254 16.129,21.244 16.148,21.236 C16.510,21.065 16.859,20.862 17.194,20.631 C17.221,20.613 17.247,20.591 17.274,20.572 C17.605,20.334 17.924,20.072 18.219,19.776 C18.494,19.498 18.739,19.199 18.963,18.890 C18.994,18.846 19.027,18.805 19.057,18.762 C19.270,18.455 19.458,18.135 19.620,17.805 C19.640,17.765 19.659,17.723 19.678,17.682 C20.001,16.991 20.216,16.258 20.316,15.509 C20.321,15.469 20.328,15.430 20.333,15.391 C20.376,15.026 20.390,14.657 20.379,14.289 C20.378,14.240 20.374,14.193 20.372,14.146 ZM47.653,26.571 C47.314,26.320 47.169,25.883 47.287,25.479 C47.410,25.061 47.472,24.640 47.472,24.228 C47.472,21.918 45.615,19.675 42.246,17.913 C41.914,17.739 41.705,17.392 41.707,17.016 C41.707,16.939 41.688,9.288 37.436,5.400 C35.827,3.929 33.780,3.171 31.338,3.140 C31.975,4.579 32.638,6.760 31.763,8.356 C31.126,9.520 29.877,10.117 28.048,10.138 C25.824,10.161 23.643,10.407 21.667,10.853 C21.843,11.274 21.978,11.711 22.090,12.155 C22.097,12.183 22.103,12.210 22.110,12.237 C22.289,12.972 22.392,13.730 22.392,14.506 C22.392,14.610 22.380,14.712 22.377,14.814 C22.374,14.905 22.369,14.995 22.364,15.085 C22.313,15.937 22.152,16.766 21.885,17.557 C21.864,17.619 21.842,17.677 21.820,17.739 C21.530,18.542 21.133,19.302 20.633,20.003 C20.582,20.075 20.529,20.146 20.475,20.217 C20.216,20.559 19.942,20.891 19.635,21.199 C19.434,21.402 19.224,21.590 19.009,21.770 C18.921,21.846 18.828,21.914 18.737,21.986 C18.614,22.080 18.490,22.175 18.364,22.264 C18.239,22.351 18.113,22.435 17.985,22.516 C17.898,22.571 17.809,22.624 17.719,22.676 C17.560,22.769 17.401,22.861 17.237,22.945 C17.224,22.951 17.212,22.957 17.199,22.963 C16.570,23.281 15.908,23.524 15.222,23.692 C15.202,23.697 15.182,23.702 15.162,23.707 C14.949,23.758 14.734,23.802 14.515,23.838 C14.475,23.844 14.436,23.848 14.396,23.855 C13.930,23.926 13.458,23.972 12.977,23.972 C12.827,23.972 12.680,23.957 12.532,23.950 C12.437,23.946 12.342,23.943 12.246,23.936 C12.077,23.924 11.909,23.904 11.741,23.882 C11.640,23.869 11.540,23.853 11.440,23.838 C11.270,23.809 11.102,23.780 10.935,23.743 C10.848,23.724 10.762,23.700 10.676,23.678 C10.105,23.534 9.551,23.337 9.019,23.089 C8.945,23.056 8.871,23.027 8.798,22.990 C8.669,23.410 8.605,23.825 8.605,24.230 C8.605,24.644 8.667,25.064 8.789,25.480 C8.907,25.885 8.761,26.323 8.424,26.574 C6.898,27.709 5.080,29.548 5.080,31.867 C5.080,32.317 5.149,32.767 5.285,33.213 C5.317,33.194 5.351,33.178 5.383,33.159 C5.444,33.122 5.506,33.089 5.568,33.056 C5.666,33.004 5.765,32.956 5.867,32.912 C5.934,32.882 6.002,32.854 6.070,32.828 C6.170,32.790 6.273,32.757 6.376,32.727 C6.447,32.707 6.518,32.687 6.591,32.670 C6.698,32.646 6.807,32.626 6.917,32.609 C6.989,32.598 7.061,32.587 7.134,32.578 C7.253,32.565 7.374,32.561 7.497,32.557 C7.564,32.555 7.630,32.550 7.701,32.549 C7.853,32.551 8.009,32.562 8.165,32.577 C8.205,32.581 8.245,32.581 8.285,32.586 C8.483,32.609 8.684,32.644 8.889,32.688 C8.939,32.699 8.991,32.717 9.042,32.728 C9.198,32.767 9.353,32.806 9.511,32.856 C9.585,32.880 9.661,32.908 9.736,32.935 C9.874,32.982 10.011,33.031 10.150,33.087 C10.234,33.121 10.319,33.159 10.404,33.197 C10.537,33.255 10.671,33.314 10.806,33.381 C10.895,33.424 10.985,33.471 11.074,33.518 C11.207,33.587 11.341,33.661 11.477,33.738 C11.568,33.790 11.660,33.845 11.752,33.900 C11.889,33.983 12.026,34.071 12.164,34.162 C12.254,34.221 12.346,34.281 12.437,34.343 C12.582,34.443 12.727,34.548 12.872,34.655 C12.958,34.719 13.046,34.781 13.133,34.847 C13.292,34.968 13.451,35.098 13.611,35.229 C13.686,35.290 13.760,35.348 13.836,35.412 C14.072,35.610 14.308,35.817 14.545,36.036 C14.749,35.898 14.960,35.783 15.174,35.679 C15.235,35.648 15.296,35.623 15.358,35.596 C15.523,35.524 15.690,35.461 15.860,35.408 C15.922,35.389 15.982,35.367 16.044,35.350 C16.499,35.227 16.968,35.164 17.448,35.158 C17.473,35.158 17.498,35.153 17.523,35.153 C17.564,35.153 17.606,35.160 17.648,35.161 C17.830,35.165 18.015,35.177 18.199,35.195 C18.265,35.201 18.330,35.206 18.395,35.216 C18.640,35.248 18.885,35.289 19.130,35.346 L19.131,35.346 C19.374,35.403 19.619,35.476 19.862,35.555 C19.931,35.577 20.000,35.602 20.070,35.627 C20.252,35.693 20.435,35.763 20.616,35.839 C20.685,35.869 20.753,35.896 20.822,35.927 C21.063,36.035 21.303,36.150 21.539,36.278 C21.541,36.279 21.542,36.279 21.544,36.280 C21.778,36.407 22.009,36.545 22.237,36.689 C22.305,36.732 22.373,36.778 22.441,36.823 C22.610,36.934 22.776,37.048 22.940,37.168 C23.006,37.216 23.072,37.263 23.137,37.312 C23.356,37.478 23.573,37.650 23.783,37.831 C26.464,35.761 30.240,35.759 32.923,37.829 C35.698,35.416 39.408,34.211 42.072,36.031 C42.449,35.683 42.822,35.370 43.192,35.073 C43.260,35.018 43.328,34.962 43.396,34.909 C43.748,34.636 44.097,34.385 44.442,34.159 C44.513,34.112 44.584,34.068 44.656,34.023 C45.008,33.800 45.356,33.595 45.698,33.423 C45.724,33.411 45.746,33.402 45.771,33.389 C46.101,33.227 46.424,33.092 46.743,32.976 C46.802,32.955 46.861,32.931 46.920,32.911 C47.241,32.802 47.556,32.720 47.864,32.661 C47.926,32.649 47.987,32.640 48.048,32.630 C48.362,32.579 48.669,32.548 48.967,32.550 C48.990,32.550 49.012,32.554 49.035,32.554 C49.328,32.560 49.610,32.595 49.886,32.652 C49.920,32.659 49.955,32.663 49.989,32.671 C50.268,32.736 50.536,32.833 50.794,32.953 C50.814,32.962 50.836,32.964 50.856,32.974 C50.951,32.603 50.998,32.232 50.998,31.864 C50.998,29.545 49.179,27.707 47.653,26.571 ZM46.283,28.160 C44.586,29.061 42.603,29.825 40.389,30.433 C40.301,30.457 40.212,30.468 40.125,30.468 C39.684,30.468 39.281,30.174 39.159,29.726 C39.014,29.189 39.329,28.637 39.861,28.490 C41.934,27.921 43.780,27.210 45.348,26.378 C45.837,26.121 46.443,26.308 46.701,26.799 C46.959,27.291 46.772,27.899 46.283,28.160 ZM40.214,19.008 C36.741,20.061 32.616,20.619 28.286,20.619 C27.733,20.619 27.283,20.169 27.283,19.613 C27.283,19.056 27.732,18.606 28.285,18.606 C32.422,18.606 36.347,18.078 39.634,17.081 C40.163,16.921 40.722,17.222 40.882,17.753 C41.043,18.286 40.743,18.847 40.214,19.008 ZM34.429,29.567 C34.980,29.496 35.481,29.883 35.552,30.435 C35.623,30.986 35.236,31.491 34.688,31.562 C32.469,31.852 30.246,31.998 28.035,31.998 C25.992,31.998 23.957,31.874 21.948,31.625 C21.399,31.558 21.009,31.057 21.076,30.504 C21.144,29.952 21.651,29.560 22.192,29.628 C26.209,30.123 30.326,30.103 34.429,29.567 ZM13.434,29.635 C13.321,29.635 13.205,29.615 13.092,29.574 C11.979,29.167 10.908,28.694 9.907,28.166 C9.417,27.909 9.227,27.301 9.482,26.809 C9.739,26.318 10.344,26.125 10.834,26.384 C11.757,26.868 12.747,27.306 13.776,27.684 C14.296,27.874 14.563,28.451 14.374,28.974 C14.227,29.382 13.843,29.635 13.434,29.635 ZM11.373,11.597 C10.288,11.597 9.203,11.182 8.377,10.352 C7.985,9.959 7.985,9.322 8.377,8.929 C8.767,8.535 9.401,8.535 9.792,8.929 C10.664,9.803 12.082,9.803 12.953,8.929 C13.345,8.535 13.979,8.535 14.370,8.929 C14.762,9.322 14.762,9.959 14.370,10.352 C13.543,11.182 12.458,11.597 11.373,11.597 ZM14.944,41.892 C15.447,41.656 16.041,41.873 16.276,42.376 L19.042,48.318 C19.276,48.822 19.060,49.422 18.559,49.656 C18.422,49.721 18.278,49.752 18.136,49.752 C17.759,49.752 17.399,49.538 17.229,49.172 L14.461,43.229 C14.227,42.727 14.443,42.127 14.944,41.892 ZM23.517,43.917 C24.063,43.836 24.575,44.207 24.661,44.757 L25.583,50.699 C25.668,51.249 25.294,51.764 24.748,51.850 C24.696,51.857 24.643,51.862 24.592,51.862 C24.107,51.862 23.681,51.506 23.604,51.010 L22.682,45.068 C22.597,44.518 22.971,44.002 23.517,43.917 ZM33.051,43.917 C33.596,44.002 33.970,44.518 33.886,45.068 L32.963,51.010 C32.886,51.506 32.460,51.862 31.975,51.862 C31.923,51.862 31.871,51.857 31.819,51.850 C31.273,51.764 30.899,51.249 30.984,50.699 L31.906,44.757 C31.991,44.207 32.504,43.836 33.051,43.917 ZM40.292,42.376 C40.526,41.872 41.124,41.655 41.623,41.892 C42.124,42.127 42.339,42.727 42.105,43.229 L39.337,49.172 C39.167,49.538 38.807,49.752 38.430,49.752 C38.288,49.752 38.144,49.721 38.007,49.656 C37.505,49.422 37.290,48.822 37.524,48.318 L40.292,42.376 Z"/>
</svg>