<svg 
 xmlns="http://www.w3.org/2000/svg"
 xmlns:xlink="http://www.w3.org/1999/xlink"
 width="59px" height="53px">
<path fill-rule="evenodd"  fill="rgb(255, 194, 67)"
 d="M57.829,24.846 C56.302,27.959 53.322,28.988 53.196,29.030 L34.364,36.620 C34.361,36.629 34.357,36.635 34.354,36.644 C34.264,36.919 34.154,37.180 34.022,37.421 C34.019,37.428 34.016,37.435 34.012,37.441 C33.875,37.686 33.726,37.920 33.545,38.130 C33.070,38.682 32.435,39.085 31.702,39.333 C31.689,39.337 31.675,39.340 31.662,39.345 C31.464,39.409 31.259,39.462 31.047,39.503 C31.002,39.512 30.957,39.520 30.912,39.528 C30.732,39.559 30.549,39.580 30.361,39.593 C30.311,39.596 30.262,39.603 30.213,39.604 C29.992,39.615 29.768,39.615 29.539,39.601 C29.263,39.582 29.000,39.536 28.750,39.467 C28.715,39.457 28.683,39.441 28.649,39.429 C28.433,39.364 28.223,39.282 28.028,39.180 C28.025,39.178 28.021,39.178 28.018,39.176 L11.575,45.801 C12.847,47.634 13.178,49.229 12.549,50.536 C11.516,52.685 8.387,52.953 8.032,52.975 C7.969,52.981 7.752,53.002 7.437,53.002 C6.540,53.002 4.847,52.838 3.644,51.744 C2.795,50.973 2.358,49.867 2.382,48.548 C2.432,45.809 3.089,41.307 3.476,38.867 C3.527,38.550 3.185,38.377 2.975,38.324 C1.827,38.038 0.983,36.972 0.467,35.161 C-0.996,30.022 2.857,26.886 4.683,25.729 L6.189,6.597 C6.193,6.545 6.208,6.499 6.213,6.447 C6.213,6.447 6.213,6.446 6.213,6.444 C6.471,3.885 8.401,1.827 10.970,1.425 C13.938,0.961 17.849,0.475 22.147,0.248 C22.169,0.248 22.187,0.237 22.208,0.237 C22.221,0.237 22.231,0.243 22.244,0.243 C27.036,-0.005 32.301,0.079 37.306,0.889 C37.436,0.880 37.571,0.896 37.701,0.943 C37.707,0.944 37.710,0.949 37.716,0.951 C40.152,1.366 42.520,1.956 44.731,2.768 C44.755,2.775 44.779,2.770 44.803,2.778 C44.839,2.791 44.862,2.817 44.894,2.833 C50.074,4.770 54.366,7.953 56.662,12.962 C56.683,13.008 56.711,13.050 56.726,13.097 C57.157,14.061 57.511,15.096 57.788,16.197 C57.796,16.216 57.811,16.229 57.818,16.248 C58.994,19.571 58.998,22.463 57.829,24.846 ZM26.515,37.629 C26.129,36.889 25.971,36.072 25.919,35.368 L12.627,40.860 C11.366,41.347 10.636,41.924 10.435,42.584 C10.314,42.980 10.376,43.473 10.593,44.045 L26.515,37.629 ZM13.183,3.116 C12.517,3.209 11.876,3.302 11.283,3.395 C10.046,3.588 9.040,4.377 8.535,5.450 C10.135,5.194 11.695,4.961 13.183,4.767 L13.183,3.116 ZM21.206,2.296 C19.059,2.434 17.031,2.632 15.189,2.856 L15.189,4.525 C17.304,4.280 19.313,4.094 21.206,3.971 L21.206,2.296 ZM28.226,2.107 C27.816,2.100 27.407,2.097 27.000,2.097 C25.716,2.097 24.452,2.134 23.212,2.188 L23.212,3.866 C24.978,3.788 26.652,3.761 28.226,3.789 L28.226,2.107 ZM30.232,2.168 L30.232,3.855 C32.108,3.944 33.839,4.113 35.446,4.349 L36.028,2.687 C34.119,2.416 32.172,2.251 30.232,2.168 ZM36.225,6.405 C36.193,6.409 36.163,6.420 36.131,6.420 C36.021,6.420 35.910,6.402 35.801,6.364 C35.781,6.357 35.769,6.342 35.750,6.334 C32.100,5.760 27.674,5.569 22.260,5.884 C22.242,5.885 22.227,5.894 22.209,5.894 C22.198,5.894 22.189,5.888 22.178,5.888 C18.087,6.129 13.430,6.663 8.128,7.534 L6.601,26.919 L6.141,27.181 C4.625,28.043 1.224,30.493 2.398,34.617 C2.687,35.633 3.085,36.296 3.464,36.391 C4.822,36.730 5.661,37.901 5.458,39.178 C5.078,41.568 4.435,45.966 4.388,48.584 C4.373,49.335 4.574,49.887 4.997,50.273 C5.818,51.020 7.378,51.043 7.858,50.989 C8.492,50.943 10.293,50.611 10.741,49.673 C11.115,48.889 10.479,47.713 9.878,46.862 C8.541,44.972 8.096,43.382 8.514,42.006 C8.908,40.711 10.008,39.731 11.876,39.010 L28.190,32.268 L27.949,33.994 C27.813,34.967 27.932,36.341 28.515,37.053 C28.566,37.116 28.623,37.167 28.680,37.219 L28.751,37.274 C28.870,37.369 29.003,37.441 29.149,37.496 C29.163,37.501 29.177,37.506 29.191,37.510 C29.338,37.561 29.498,37.595 29.674,37.607 C29.766,37.614 29.860,37.613 29.954,37.614 C30.347,37.613 30.917,37.558 31.423,37.295 C31.939,37.014 32.363,36.520 32.540,35.676 L32.564,35.563 C32.701,34.785 32.642,33.795 32.374,32.616 C32.250,32.066 32.254,31.496 32.387,30.968 L32.510,30.482 L51.519,22.627 C51.810,22.472 54.366,21.036 53.480,19.114 C52.347,16.651 50.951,14.183 48.727,12.048 C48.703,12.034 48.678,12.028 48.654,12.013 C48.540,11.934 48.448,11.836 48.378,11.726 C46.956,10.432 45.207,9.271 42.997,8.324 C42.929,8.315 42.861,8.313 42.794,8.289 C42.699,8.255 42.624,8.197 42.548,8.141 C40.753,7.413 38.673,6.819 36.225,6.405 ZM38.037,3.014 L37.449,4.690 C39.326,5.059 41.017,5.528 42.530,6.090 L43.175,4.321 C41.537,3.770 39.811,3.342 38.037,3.014 ZM45.051,5.025 L44.380,6.866 C46.172,7.695 47.706,8.660 49.017,9.736 L50.222,7.998 C48.695,6.794 46.950,5.814 45.051,5.025 ZM51.730,9.338 L50.509,11.099 C51.509,12.108 52.366,13.188 53.115,14.315 L54.517,13.123 C53.771,11.692 52.829,10.438 51.730,9.338 ZM56.054,17.520 C55.877,16.643 55.638,15.818 55.354,15.034 L54.166,16.043 C54.575,16.778 54.955,17.526 55.305,18.286 C55.584,18.893 55.690,19.471 55.676,20.016 C56.078,19.274 56.230,18.397 56.054,17.520 ZM54.626,23.505 L34.293,31.906 C34.298,31.996 34.312,32.088 34.333,32.180 C34.512,32.966 34.604,33.688 34.630,34.359 L52.500,27.159 C52.575,27.131 54.894,26.307 56.040,23.943 C56.313,23.379 56.491,22.765 56.592,22.114 C56.052,22.697 55.398,23.187 54.626,23.505 ZM46.613,16.948 C46.613,20.303 43.164,23.031 38.924,23.031 C35.335,23.031 32.238,23.031 32.238,18.941 C32.238,15.163 40.354,13.146 41.932,13.147 C41.936,13.147 41.939,13.147 41.943,13.147 C42.745,13.147 43.828,13.149 44.763,13.596 C45.607,13.999 46.613,14.908 46.613,16.948 ZM43.894,15.391 C43.369,15.141 42.584,15.139 41.950,15.139 C41.946,15.139 41.942,15.139 41.938,15.139 C40.393,15.139 34.243,17.166 34.243,18.941 C34.243,20.594 34.243,21.037 38.924,21.037 C42.005,21.037 44.607,19.165 44.607,16.948 C44.607,15.733 44.107,15.494 43.894,15.391 ZM41.984,17.574 C41.431,17.574 40.982,17.128 40.982,16.578 C40.982,16.027 41.431,15.581 41.984,15.581 C42.538,15.581 42.987,16.027 42.987,16.578 C42.987,17.128 42.538,17.574 41.984,17.574 ZM41.672,19.085 C41.672,19.636 41.223,20.081 40.669,20.081 C40.115,20.081 39.666,19.636 39.666,19.085 C39.666,18.534 40.115,18.089 40.669,18.089 C41.223,18.089 41.672,18.534 41.672,19.085 ZM36.752,20.213 C36.198,20.213 35.749,19.767 35.749,19.217 C35.749,18.666 36.198,18.220 36.752,18.220 C37.305,18.220 37.754,18.666 37.754,19.217 C37.754,19.767 37.305,20.213 36.752,20.213 ZM34.308,14.084 C34.119,14.122 33.928,14.142 33.740,14.142 C33.236,14.142 32.744,14.005 32.313,13.739 C31.703,13.363 31.289,12.778 31.146,12.091 C31.105,11.895 30.966,11.783 30.887,11.734 C30.733,11.639 30.545,11.606 30.355,11.648 C28.899,11.940 27.483,11.049 27.193,9.654 C27.152,9.457 27.013,9.345 26.933,9.297 C26.780,9.201 26.590,9.167 26.402,9.210 C25.854,9.319 25.328,8.974 25.215,8.435 C25.101,7.896 25.450,7.368 25.993,7.256 C26.685,7.113 27.396,7.237 27.989,7.602 C28.598,7.977 29.012,8.564 29.156,9.250 C29.222,9.570 29.577,9.773 29.948,9.694 C30.641,9.551 31.350,9.674 31.943,10.040 C32.552,10.415 32.967,11.001 33.110,11.688 C33.150,11.884 33.290,11.995 33.369,12.044 C33.523,12.139 33.710,12.171 33.900,12.131 C34.444,12.023 34.973,12.366 35.086,12.905 C35.199,13.443 34.850,13.972 34.308,14.084 ZM26.652,18.276 C26.837,18.354 27.010,18.309 27.095,18.273 C27.261,18.203 27.396,18.067 27.474,17.892 C27.698,17.387 28.288,17.157 28.796,17.380 C29.303,17.601 29.533,18.190 29.310,18.693 C29.024,19.339 28.513,19.841 27.870,20.110 C27.209,20.386 26.489,20.381 25.843,20.099 C25.659,20.019 25.486,20.066 25.400,20.102 C25.234,20.171 25.099,20.307 25.021,20.482 C24.422,21.832 22.867,22.464 21.553,21.887 C21.369,21.807 21.196,21.854 21.110,21.890 C20.943,21.959 20.809,22.095 20.731,22.270 C20.565,22.644 20.197,22.866 19.812,22.866 C19.678,22.866 19.540,22.839 19.409,22.781 C18.902,22.561 18.672,21.973 18.895,21.469 C19.180,20.823 19.692,20.321 20.335,20.053 C20.995,19.776 21.716,19.782 22.361,20.064 C22.662,20.195 23.032,20.024 23.185,19.680 C23.470,19.035 23.980,18.533 24.624,18.265 C25.285,17.988 26.004,17.993 26.652,18.276 ZM16.555,18.089 C12.968,18.089 9.869,18.089 9.869,13.998 C9.869,10.220 17.986,8.204 19.563,8.204 C19.567,8.204 19.571,8.204 19.575,8.204 C20.377,8.204 21.460,8.207 22.394,8.653 C23.239,9.056 24.244,9.965 24.244,12.004 C24.244,15.359 20.795,18.089 16.555,18.089 ZM21.525,10.450 C21.002,10.200 20.217,10.197 19.583,10.197 C19.579,10.197 19.575,10.197 19.571,10.197 C18.024,10.197 11.874,12.225 11.874,13.999 C11.874,15.652 11.874,16.096 16.555,16.096 C19.636,16.096 22.238,14.223 22.238,12.006 C22.238,10.790 21.739,10.552 21.525,10.450 ZM20.288,14.142 C19.735,14.142 19.286,13.696 19.286,13.146 C19.286,12.595 19.735,12.149 20.288,12.149 C20.842,12.149 21.291,12.595 21.291,13.146 C21.291,13.696 20.842,14.142 20.288,14.142 ZM17.056,13.146 C16.502,13.146 16.053,12.700 16.053,12.149 C16.053,11.599 16.502,11.152 17.056,11.152 C17.610,11.152 18.059,11.599 18.059,12.149 C18.059,12.700 17.610,13.146 17.056,13.146 ZM14.440,15.462 C13.886,15.462 13.437,15.016 13.437,14.465 C13.437,13.915 13.886,13.468 14.440,13.468 C14.994,13.468 15.443,13.915 15.443,14.465 C15.443,15.016 14.994,15.462 14.440,15.462 ZM20.069,24.825 C20.913,25.229 21.918,26.137 21.918,28.177 C21.918,31.532 18.469,34.260 14.229,34.260 C10.642,34.260 7.543,34.260 7.543,30.170 C7.543,26.393 15.660,24.376 17.238,24.376 C18.075,24.376 19.130,24.376 20.069,24.825 ZM9.549,30.171 C9.549,31.825 9.549,32.268 14.229,32.268 C17.310,32.268 19.912,30.395 19.912,28.177 C19.912,26.963 19.413,26.724 19.199,26.622 C18.676,26.372 17.892,26.370 17.258,26.370 C17.254,26.370 17.250,26.370 17.246,26.370 C15.698,26.370 9.549,28.397 9.549,30.171 ZM18.059,30.153 C18.059,30.704 17.610,31.150 17.056,31.150 C16.502,31.150 16.053,30.704 16.053,30.153 C16.053,29.603 16.502,29.156 17.056,29.156 C17.610,29.156 18.059,29.603 18.059,30.153 ZM15.443,29.156 C14.889,29.156 14.440,28.710 14.440,28.160 C14.440,27.609 14.889,27.163 15.443,27.163 C15.996,27.163 16.446,27.609 16.446,28.160 C16.446,28.710 15.996,29.156 15.443,29.156 ZM12.183,31.473 C11.629,31.473 11.180,31.026 11.180,30.476 C11.180,29.926 11.629,29.479 12.183,29.479 C12.737,29.479 13.186,29.926 13.186,30.476 C13.186,31.026 12.737,31.473 12.183,31.473 ZM27.090,26.947 C27.138,26.946 27.205,26.871 27.202,26.756 C27.176,25.552 28.106,24.553 29.275,24.528 C29.323,24.527 29.391,24.452 29.387,24.336 C29.376,23.786 29.816,23.330 30.369,23.318 C30.950,23.348 31.381,23.743 31.393,24.293 C31.419,25.497 30.489,26.496 29.319,26.522 C29.272,26.523 29.205,26.598 29.208,26.714 C29.234,27.916 28.303,28.916 27.134,28.942 C27.060,28.943 27.021,29.059 27.022,29.132 C27.035,29.683 26.596,30.138 26.042,30.151 C26.034,30.151 26.027,30.151 26.019,30.151 C25.475,30.151 25.029,29.718 25.017,29.177 C25.004,28.606 25.204,28.061 25.582,27.642 C25.976,27.207 26.510,26.961 27.090,26.947 Z"/>
</svg>