<svg 
 xmlns="http://www.w3.org/2000/svg"
 xmlns:xlink="http://www.w3.org/1999/xlink"
 width="53px" height="52px">
<path fill-rule="evenodd"  fill="rgb(255, 98, 98)"
 d="M51.631,32.143 C49.671,40.301 44.723,46.083 36.923,49.329 C31.569,51.559 26.178,52.000 22.754,52.000 C21.382,52.000 20.325,51.929 19.713,51.874 L19.422,51.848 C17.587,51.685 15.690,51.516 13.858,50.906 C5.377,48.085 2.073,41.037 1.937,40.738 L1.901,40.648 C-0.005,35.129 1.151,32.046 2.458,30.432 C4.164,28.325 7.055,27.475 10.823,27.971 C13.185,28.278 15.454,27.367 16.888,25.518 C18.320,23.673 18.652,21.243 17.777,19.018 C14.958,11.843 17.227,6.140 24.163,2.958 C29.711,0.414 34.713,-0.000 39.030,1.728 C44.915,4.085 48.333,9.992 50.166,14.535 C52.501,20.322 53.008,26.412 51.631,32.143 ZM48.324,15.287 C46.636,11.105 43.528,5.681 38.295,3.586 C34.502,2.067 30.024,2.468 24.987,4.778 C18.988,7.528 17.184,12.072 19.624,18.283 C20.760,21.174 20.324,24.339 18.455,26.749 C16.584,29.162 13.639,30.363 10.562,29.954 C7.517,29.554 5.247,30.153 3.998,31.695 C2.610,33.411 2.526,36.336 3.760,39.937 C4.024,40.477 7.154,46.570 14.483,49.008 C16.096,49.545 17.797,49.696 19.598,49.857 L19.889,49.882 C21.919,50.063 29.083,50.429 36.163,47.483 C43.344,44.494 47.898,39.175 49.699,31.674 C50.978,26.350 50.503,20.685 48.324,15.287 ZM22.938,48.016 C21.997,48.016 21.093,47.978 20.250,47.902 L19.969,47.877 C18.306,47.729 16.733,47.589 15.294,47.110 C8.959,45.002 6.164,40.040 5.669,39.066 L5.611,38.929 C4.633,36.013 4.624,33.657 5.585,32.296 C6.491,31.012 8.455,30.489 11.073,30.841 C14.588,31.308 17.987,29.787 19.951,26.881 C21.686,24.317 22.019,21.160 20.866,18.223 C17.698,10.160 23.555,7.473 25.481,6.588 C35.098,2.183 42.181,5.435 46.495,16.121 C47.628,18.929 48.243,21.813 48.369,24.671 C48.376,24.733 48.383,24.792 48.377,24.855 C48.455,27.004 48.266,29.138 47.767,31.215 C46.554,36.267 41.706,48.016 22.938,48.016 ZM27.467,45.751 C39.157,44.313 43.572,37.363 45.224,32.788 C43.485,32.311 38.729,31.699 30.593,35.625 C27.085,37.319 23.974,37.608 21.342,36.488 C20.546,36.149 19.862,35.708 19.277,35.223 C20.040,37.195 21.374,38.917 23.119,40.129 C24.648,41.190 27.307,43.042 27.467,45.751 ZM16.519,32.093 C14.751,32.805 12.801,33.086 10.814,32.822 C9.032,32.585 7.638,32.841 7.205,33.454 C6.773,34.067 6.618,35.638 7.470,38.217 C7.868,38.975 10.387,43.370 15.917,45.212 C17.138,45.618 18.599,45.747 20.146,45.885 L20.428,45.910 C21.211,45.980 22.056,46.016 22.938,46.017 C23.822,46.017 24.662,45.983 25.480,45.930 C25.417,44.473 24.035,43.194 21.991,41.775 C19.134,39.790 17.205,36.660 16.698,33.183 C16.641,32.786 16.578,32.418 16.519,32.093 ZM44.654,16.872 C41.921,10.102 38.065,6.669 33.194,6.669 C31.140,6.669 28.822,7.254 26.305,8.408 C23.306,9.784 20.534,11.939 22.713,17.488 C23.633,19.830 23.756,22.283 23.145,24.580 C23.900,25.545 26.652,28.271 32.594,26.369 C33.910,25.688 41.791,21.759 46.241,23.023 C45.990,20.962 45.471,18.897 44.654,16.872 ZM33.436,28.183 C33.386,28.210 33.335,28.230 33.283,28.248 C31.590,28.798 30.097,29.019 28.791,29.019 C25.609,29.019 23.542,27.707 22.380,26.636 C22.150,27.104 21.894,27.564 21.595,28.006 C20.758,29.244 19.697,30.263 18.499,31.057 C18.998,32.046 20.124,33.807 22.135,34.654 C24.214,35.531 26.771,35.252 29.733,33.823 C38.393,29.643 43.641,30.258 45.805,30.871 C45.815,30.830 45.827,30.786 45.837,30.746 C46.266,28.955 46.449,27.115 46.408,25.259 C44.131,23.641 37.349,26.133 33.436,28.183 ZM34.137,19.216 C31.398,19.216 29.170,16.973 29.170,14.217 C29.170,11.461 31.398,9.219 34.137,9.219 C36.876,9.219 39.105,11.461 39.105,14.217 C39.105,16.973 36.876,19.216 34.137,19.216 ZM34.137,11.218 C32.494,11.218 31.157,12.564 31.157,14.217 C31.157,15.870 32.494,17.216 34.137,17.216 C35.780,17.216 37.118,15.870 37.118,14.217 C37.118,12.564 35.780,11.218 34.137,11.218 Z"/>
</svg>