<svg 
 xmlns="http://www.w3.org/2000/svg"
 xmlns:xlink="http://www.w3.org/1999/xlink"
 width="59px" height="56px">
<path fill-rule="evenodd"  fill="rgb(75, 129, 27)"
 d="M58.995,21.907 C58.995,23.300 58.439,24.607 57.428,25.589 C56.889,26.111 56.253,26.511 55.553,26.768 C55.639,28.086 55.146,29.394 54.165,30.346 C53.277,31.209 52.070,31.687 50.831,31.694 C50.576,32.145 50.259,32.556 49.881,32.923 C48.788,33.985 47.352,34.516 45.916,34.516 C44.984,34.516 44.061,34.268 43.222,33.820 C38.946,34.014 36.080,40.486 34.704,53.093 L34.628,53.791 C34.483,55.053 33.406,56.005 32.124,56.005 L27.103,56.005 C25.790,56.005 24.688,54.991 24.597,53.698 C23.858,43.213 18.237,34.230 14.108,34.116 C13.719,34.229 13.320,34.304 12.916,34.304 C11.848,34.304 10.781,33.908 9.969,33.120 C9.256,32.428 8.834,31.510 8.757,30.553 C7.312,30.536 5.920,29.978 4.871,28.957 C3.814,27.931 3.230,26.540 3.222,25.106 C2.540,24.882 1.923,24.509 1.402,24.004 C0.501,23.127 0.004,21.961 0.004,20.718 C0.004,19.476 0.501,18.309 1.402,17.434 C1.888,16.962 2.465,16.603 3.099,16.375 C3.095,15.001 3.649,13.666 4.665,12.678 C6.087,11.296 8.174,10.829 10.049,11.412 C11.545,10.019 13.705,9.624 15.596,10.319 C16.256,9.423 17.133,8.676 18.186,8.185 C18.186,8.173 18.186,8.160 18.186,8.146 C18.186,4.481 21.247,1.500 25.009,1.500 C26.073,1.500 27.107,1.739 28.049,2.198 C29.186,0.817 30.914,-0.008 32.765,-0.008 C34.428,-0.008 36.019,0.670 37.153,1.837 C37.866,1.611 38.604,1.498 39.358,1.498 C43.334,1.498 46.569,4.649 46.569,8.522 C46.569,8.609 46.550,8.693 46.547,8.781 C48.176,8.292 50.020,8.651 51.308,9.903 C51.796,10.377 52.167,10.939 52.403,11.559 C53.818,11.541 55.185,12.085 56.203,13.072 C57.626,14.457 58.115,16.487 57.520,18.320 C58.473,19.290 58.994,20.559 58.995,21.907 ZM26.599,53.560 C26.617,53.816 26.837,54.018 27.101,54.018 L32.122,54.018 C32.382,54.018 32.600,53.824 32.630,53.567 L32.706,52.881 C33.223,48.137 34.702,34.575 41.306,32.181 C41.172,31.994 41.050,31.798 40.942,31.595 C40.751,31.591 40.562,31.569 40.377,31.530 C40.239,31.502 40.109,31.455 39.977,31.408 C39.931,31.391 39.882,31.383 39.835,31.364 C39.745,31.328 39.663,31.274 39.576,31.228 C39.495,31.185 39.411,31.151 39.333,31.100 C39.328,31.096 39.324,31.091 39.319,31.088 C39.167,30.987 39.021,30.873 38.887,30.744 C38.883,30.740 38.881,30.735 38.877,30.730 C38.730,30.586 38.603,30.427 38.492,30.259 C38.481,30.242 38.465,30.229 38.455,30.213 C35.279,34.162 33.089,40.002 33.065,40.067 C32.879,40.566 32.327,40.834 31.814,40.669 C31.301,40.505 31.010,39.969 31.156,39.455 C32.249,35.611 32.242,31.750 31.967,28.863 C31.914,28.878 31.860,28.884 31.808,28.897 C31.648,28.937 31.487,28.971 31.324,28.999 C31.219,29.018 31.114,29.033 31.008,29.047 C30.859,29.067 30.708,29.081 30.558,29.091 C30.444,29.098 30.331,29.104 30.217,29.108 C30.162,29.109 30.108,29.116 30.052,29.116 C29.955,29.116 29.861,29.104 29.764,29.101 C29.655,29.096 29.546,29.092 29.436,29.084 C29.272,29.070 29.112,29.047 28.951,29.022 C28.880,29.012 28.807,29.008 28.735,28.996 C29.944,35.188 29.144,43.414 29.106,43.793 C29.057,44.275 28.667,44.651 28.180,44.686 C27.695,44.719 27.250,44.406 27.133,43.937 C25.526,37.585 22.183,33.310 20.219,31.236 C20.131,31.339 20.039,31.439 19.941,31.534 C19.819,31.653 19.692,31.761 19.559,31.862 C19.537,31.879 19.512,31.892 19.490,31.909 C19.378,31.989 19.267,32.067 19.149,32.136 C19.101,32.164 19.050,32.186 19.001,32.213 C18.905,32.264 18.812,32.315 18.713,32.359 C18.653,32.386 18.590,32.405 18.529,32.429 C18.438,32.464 18.349,32.501 18.257,32.529 C18.191,32.551 18.125,32.563 18.059,32.580 C17.966,32.604 17.875,32.629 17.782,32.647 C17.714,32.659 17.647,32.665 17.580,32.675 C17.485,32.688 17.391,32.702 17.296,32.710 C17.228,32.714 17.160,32.713 17.092,32.714 C16.996,32.716 16.901,32.719 16.804,32.716 C16.735,32.713 16.665,32.704 16.595,32.697 C16.517,32.689 16.440,32.688 16.363,32.676 C21.280,34.974 25.928,44.042 26.599,53.560 ZM34.112,33.144 C35.029,31.515 36.140,29.835 37.382,28.403 C37.192,28.273 37.014,28.127 36.848,27.966 C36.809,27.927 36.781,27.893 36.752,27.857 C36.220,27.613 35.723,27.301 35.301,26.900 C34.880,27.338 34.403,27.710 33.891,28.026 C34.058,29.495 34.173,31.234 34.112,33.144 ZM26.487,28.189 C25.864,27.842 25.291,27.406 24.794,26.890 C24.656,26.963 24.512,27.022 24.369,27.084 C24.139,27.251 23.909,27.414 23.680,27.537 C23.661,28.287 23.353,29.012 22.797,29.553 C22.540,29.802 22.242,29.994 21.923,30.136 C23.583,31.922 25.703,34.678 27.374,38.479 C27.430,35.311 27.288,31.282 26.487,28.189 ZM14.309,14.175 C14.309,13.832 14.340,13.495 14.393,13.163 C14.406,13.075 14.433,12.989 14.451,12.902 C14.500,12.658 14.555,12.417 14.631,12.182 C14.640,12.154 14.643,12.123 14.654,12.094 C13.504,11.767 12.248,12.058 11.376,12.905 C11.277,13.001 11.191,13.101 11.109,13.204 C10.816,13.564 10.307,13.677 9.891,13.479 C8.610,12.872 7.076,13.119 6.073,14.094 C5.307,14.839 4.966,15.903 5.162,16.941 C5.213,17.205 5.152,17.478 4.995,17.697 C4.838,17.917 4.598,18.064 4.329,18.105 C3.746,18.193 3.221,18.452 2.810,18.850 C2.295,19.350 2.012,20.014 2.012,20.718 C2.012,21.422 2.295,22.086 2.808,22.587 C3.241,23.007 3.795,23.270 4.411,23.345 C4.684,23.378 4.931,23.520 5.095,23.737 C5.258,23.956 5.326,24.231 5.278,24.498 C5.085,25.609 5.458,26.747 6.276,27.541 C7.154,28.394 8.406,28.745 9.633,28.479 C9.704,28.464 9.777,28.456 9.849,28.456 C10.120,28.456 10.383,28.565 10.575,28.762 C10.817,29.012 10.909,29.370 10.820,29.705 C10.625,30.429 10.833,31.176 11.375,31.703 C11.995,32.304 12.896,32.462 13.672,32.183 C13.676,32.182 13.679,32.178 13.683,32.177 C13.983,32.067 14.244,31.907 14.457,31.700 C14.638,31.525 14.785,31.317 14.893,31.085 C15.115,30.607 15.680,30.382 16.175,30.578 C16.992,30.898 17.917,30.717 18.536,30.115 C18.680,29.976 18.801,29.818 18.898,29.645 C18.994,29.476 19.065,29.294 19.109,29.103 C19.171,28.835 19.342,28.605 19.581,28.467 C19.819,28.329 20.105,28.294 20.372,28.371 C20.739,28.479 21.129,28.389 21.393,28.133 C21.543,27.985 21.638,27.799 21.666,27.600 C21.602,27.597 21.539,27.587 21.475,27.583 C21.377,27.576 21.278,27.569 21.181,27.557 C21.078,27.545 20.978,27.528 20.877,27.511 C20.781,27.496 20.686,27.480 20.591,27.459 C20.493,27.437 20.397,27.411 20.299,27.386 C20.207,27.361 20.114,27.335 20.024,27.307 C19.929,27.277 19.835,27.241 19.742,27.206 C19.653,27.173 19.565,27.141 19.479,27.104 C19.388,27.065 19.300,27.022 19.212,26.979 C19.127,26.937 19.043,26.897 18.960,26.852 C18.875,26.805 18.793,26.754 18.710,26.704 C18.630,26.655 18.550,26.607 18.472,26.555 C18.392,26.500 18.316,26.441 18.238,26.384 C18.164,26.328 18.089,26.274 18.018,26.215 C17.943,26.155 17.872,26.088 17.801,26.023 C17.732,25.961 17.662,25.900 17.597,25.836 C17.527,25.767 17.463,25.695 17.398,25.623 C17.336,25.556 17.273,25.490 17.214,25.420 C17.151,25.342 17.094,25.264 17.034,25.185 C16.980,25.113 16.925,25.043 16.874,24.968 C16.819,24.886 16.768,24.801 16.716,24.715 C16.670,24.639 16.621,24.565 16.578,24.487 C16.528,24.399 16.486,24.306 16.442,24.214 C16.404,24.135 16.363,24.059 16.328,23.977 C16.286,23.880 16.252,23.780 16.216,23.681 C16.187,23.602 16.155,23.525 16.129,23.443 C16.095,23.336 16.069,23.226 16.042,23.116 C16.023,23.039 15.999,22.964 15.983,22.886 C15.957,22.762 15.941,22.636 15.924,22.511 C15.914,22.443 15.900,22.376 15.893,22.307 C15.873,22.111 15.862,21.914 15.862,21.713 C15.862,20.783 16.084,19.882 16.510,19.062 C15.118,17.811 14.309,16.044 14.309,14.175 ZM44.464,12.000 C44.346,11.936 44.248,11.853 44.168,11.755 C44.111,11.684 44.076,11.600 44.040,11.517 C44.027,11.487 44.003,11.462 43.993,11.431 C43.961,11.333 43.955,11.229 43.955,11.126 C43.955,11.105 43.947,11.086 43.947,11.065 C43.954,10.980 43.987,10.897 44.015,10.814 C44.028,10.775 44.028,10.735 44.046,10.698 L44.048,10.693 C44.048,10.692 44.048,10.692 44.048,10.692 C44.049,10.689 44.050,10.686 44.052,10.682 L44.128,10.502 C44.129,10.499 44.131,10.498 44.132,10.494 C44.412,9.864 44.562,9.202 44.562,8.521 C44.562,5.744 42.227,3.484 39.359,3.484 C38.630,3.484 37.919,3.631 37.247,3.921 C36.818,4.105 36.316,3.973 36.038,3.600 C35.278,2.583 34.055,1.976 32.766,1.976 C31.294,1.976 29.936,2.754 29.226,4.005 C29.089,4.250 28.853,4.425 28.578,4.487 C28.303,4.549 28.012,4.496 27.780,4.337 C26.962,3.779 26.005,3.484 25.010,3.484 C22.355,3.484 20.196,5.575 20.196,8.145 C20.196,8.338 20.212,8.525 20.235,8.711 C20.293,9.179 20.012,9.624 19.560,9.775 C18.353,10.178 17.395,11.014 16.842,12.066 C16.824,12.099 16.812,12.133 16.795,12.166 C16.713,12.332 16.641,12.501 16.579,12.676 C16.558,12.733 16.542,12.789 16.524,12.846 C16.474,13.008 16.434,13.173 16.402,13.339 C16.392,13.396 16.379,13.451 16.371,13.507 C16.338,13.727 16.317,13.949 16.317,14.176 C16.317,15.704 17.094,17.137 18.397,18.010 C18.624,18.162 18.779,18.398 18.824,18.666 C18.870,18.933 18.804,19.207 18.640,19.425 C18.135,20.099 17.868,20.891 17.868,21.715 C17.868,23.870 19.679,25.622 21.906,25.622 C22.174,25.622 22.443,25.592 22.711,25.534 C22.720,25.533 22.729,25.530 22.738,25.528 C23.004,25.469 23.269,25.385 23.533,25.270 C23.540,25.268 23.547,25.268 23.554,25.265 C23.845,25.137 24.127,24.987 24.386,24.792 C24.562,24.658 24.777,24.587 24.996,24.587 C25.045,24.587 25.093,24.591 25.142,24.598 C25.410,24.636 25.650,24.782 25.809,24.998 C26.323,25.701 27.009,26.249 27.786,26.615 C27.967,26.702 28.152,26.775 28.339,26.839 C28.354,26.845 28.369,26.849 28.384,26.854 C28.556,26.912 28.731,26.961 28.908,27.001 C28.939,27.008 28.972,27.012 29.003,27.018 C29.166,27.051 29.330,27.079 29.493,27.097 C29.542,27.102 29.591,27.102 29.639,27.106 C29.789,27.118 29.939,27.129 30.089,27.128 C30.290,27.126 30.488,27.114 30.684,27.092 C30.798,27.078 30.909,27.053 31.022,27.032 C31.111,27.016 31.201,27.004 31.288,26.983 C31.416,26.952 31.542,26.912 31.667,26.872 C31.734,26.851 31.802,26.832 31.867,26.808 C32.000,26.760 32.130,26.703 32.260,26.643 C33.142,26.240 33.906,25.606 34.449,24.773 C34.636,24.485 34.936,24.319 35.310,24.319 C35.657,24.326 35.976,24.509 36.155,24.803 C36.529,25.424 37.106,25.891 37.776,26.150 L37.777,26.150 C37.952,26.217 38.130,26.265 38.309,26.301 C38.346,26.308 38.383,26.317 38.422,26.323 C38.604,26.355 38.787,26.375 38.972,26.375 C40.771,26.375 42.234,24.960 42.234,23.222 C42.234,22.852 42.164,22.480 42.025,22.119 C41.831,21.616 42.075,21.053 42.576,20.847 C43.783,20.350 44.562,19.211 44.562,17.945 C44.562,17.355 44.388,16.777 44.061,16.274 C43.909,16.040 43.863,15.754 43.933,15.485 C44.005,15.216 44.186,14.988 44.436,14.858 C44.991,14.567 45.337,14.017 45.337,13.422 C45.337,12.830 45.011,12.299 44.464,12.000 ZM56.021,19.641 C55.923,19.547 55.820,19.463 55.714,19.382 C55.334,19.093 55.213,18.578 55.427,18.153 C56.042,16.927 55.789,15.453 54.796,14.488 C54.023,13.737 52.916,13.405 51.833,13.597 C51.570,13.644 51.294,13.584 51.074,13.430 C50.853,13.275 50.706,13.040 50.664,12.776 C50.573,12.218 50.310,11.714 49.901,11.317 C48.951,10.393 47.465,10.286 46.393,11.006 C46.451,11.068 46.494,11.141 46.547,11.207 C46.608,11.282 46.669,11.356 46.723,11.435 C46.804,11.555 46.872,11.681 46.938,11.809 C46.979,11.889 47.024,11.965 47.060,12.047 C47.121,12.193 47.165,12.345 47.207,12.498 C47.227,12.572 47.255,12.640 47.270,12.715 C47.318,12.944 47.346,13.180 47.346,13.419 C47.346,13.669 47.319,13.916 47.267,14.155 C47.113,14.873 46.736,15.529 46.191,16.035 C46.440,16.640 46.569,17.286 46.569,17.943 C46.569,19.715 45.643,21.333 44.149,22.268 C44.212,22.582 44.243,22.899 44.243,23.219 C44.243,23.553 44.204,23.877 44.141,24.193 C44.121,24.297 44.085,24.394 44.058,24.495 C44.003,24.703 43.943,24.908 43.863,25.106 C43.818,25.218 43.762,25.323 43.709,25.432 C43.622,25.607 43.530,25.778 43.424,25.941 C43.357,26.046 43.286,26.146 43.211,26.246 C43.095,26.400 42.971,26.545 42.839,26.685 C42.755,26.775 42.670,26.864 42.579,26.948 C42.432,27.082 42.276,27.203 42.114,27.322 C42.020,27.390 41.930,27.463 41.831,27.526 C41.637,27.647 41.431,27.751 41.221,27.848 C41.141,27.885 41.067,27.931 40.984,27.966 C40.696,28.082 40.396,28.178 40.084,28.244 C40.077,28.286 40.067,28.329 40.054,28.370 C40.007,28.523 40.004,28.677 40.031,28.823 C40.044,28.893 40.068,28.961 40.097,29.025 C40.107,29.047 40.113,29.071 40.124,29.092 C40.169,29.176 40.224,29.254 40.294,29.321 C40.331,29.357 40.376,29.382 40.417,29.412 C40.632,29.562 40.898,29.624 41.168,29.584 C41.210,29.578 41.253,29.578 41.296,29.566 C41.298,29.566 41.300,29.566 41.300,29.566 C41.388,29.543 41.476,29.532 41.564,29.532 C41.585,29.532 41.606,29.541 41.627,29.542 C41.669,29.545 41.707,29.553 41.747,29.560 C41.823,29.575 41.893,29.595 41.962,29.625 C41.998,29.640 42.033,29.656 42.067,29.676 C42.137,29.717 42.198,29.766 42.258,29.823 C42.281,29.846 42.307,29.865 42.328,29.889 C42.403,29.979 42.467,30.077 42.509,30.192 C42.690,30.693 42.974,31.134 43.354,31.503 C43.528,31.672 43.724,31.824 43.954,31.970 C43.955,31.971 43.956,31.971 43.957,31.972 C45.357,32.850 47.248,32.694 48.472,31.505 C48.829,31.160 49.100,30.752 49.282,30.293 C49.455,29.859 49.912,29.601 50.372,29.674 C51.241,29.805 52.137,29.530 52.757,28.929 C53.457,28.249 53.721,27.252 53.447,26.328 C53.366,26.055 53.405,25.762 53.558,25.521 C53.710,25.279 53.958,25.114 54.240,25.067 C54.919,24.952 55.536,24.642 56.020,24.172 C56.642,23.566 56.986,22.762 56.987,21.905 C56.987,21.051 56.643,20.247 56.021,19.641 ZM52.270,24.877 C51.637,25.151 50.967,25.289 50.296,25.289 C49.690,25.289 49.084,25.177 48.503,24.953 C47.278,24.479 46.313,23.562 45.786,22.371 C45.564,21.869 45.795,21.283 46.303,21.063 C46.814,20.844 47.404,21.073 47.626,21.575 C47.938,22.279 48.509,22.823 49.235,23.103 C49.961,23.383 50.752,23.367 51.465,23.058 C52.178,22.749 52.726,22.184 53.009,21.467 C53.292,20.751 53.277,19.967 52.964,19.262 C52.742,18.760 52.973,18.174 53.481,17.954 C53.992,17.735 54.582,17.963 54.804,18.463 C55.331,19.654 55.359,20.977 54.880,22.189 C54.401,23.401 53.474,24.355 52.270,24.877 ZM38.960,22.207 C38.198,22.633 37.366,22.836 36.547,22.836 C34.829,22.836 33.158,21.946 32.254,20.363 C31.981,19.886 32.151,19.280 32.633,19.009 C33.114,18.739 33.729,18.907 34.001,19.385 C34.385,20.056 35.008,20.538 35.758,20.745 C36.507,20.949 37.294,20.856 37.972,20.476 C38.649,20.097 39.138,19.481 39.346,18.738 C39.554,17.997 39.458,17.218 39.075,16.549 C38.802,16.071 38.973,15.465 39.455,15.196 C39.937,14.925 40.550,15.094 40.824,15.572 C41.470,16.704 41.634,18.018 41.281,19.272 C40.929,20.525 40.105,21.567 38.960,22.207 ZM36.560,12.210 C36.400,12.210 36.240,12.204 36.081,12.188 C34.771,12.064 33.589,11.443 32.753,10.440 C32.400,10.017 32.461,9.391 32.889,9.042 C33.318,8.691 33.949,8.753 34.302,9.176 C34.797,9.770 35.497,10.138 36.272,10.211 C37.057,10.288 37.805,10.055 38.404,9.565 C39.645,8.554 39.821,6.733 38.798,5.507 C38.446,5.084 38.506,4.459 38.934,4.109 C39.363,3.759 39.994,3.821 40.348,4.243 C42.075,6.313 41.776,9.388 39.684,11.097 C38.794,11.823 37.700,12.210 36.560,12.210 ZM35.652,13.861 C35.893,13.368 36.491,13.160 36.994,13.399 C37.493,13.639 37.701,14.233 37.460,14.726 C36.611,16.462 34.851,17.474 33.022,17.474 C32.303,17.474 31.575,17.318 30.885,16.988 C28.442,15.818 27.417,12.901 28.598,10.484 C28.840,9.992 29.438,9.784 29.939,10.023 C30.438,10.263 30.647,10.856 30.406,11.350 C29.706,12.779 30.314,14.508 31.760,15.200 C33.206,15.891 34.952,15.292 35.652,13.861 ZM27.062,7.602 C25.565,7.023 23.872,7.757 23.287,9.237 C22.702,10.717 23.444,12.393 24.940,12.971 C25.456,13.171 25.712,13.747 25.510,14.258 C25.354,14.649 24.974,14.891 24.574,14.891 C24.452,14.891 24.329,14.867 24.208,14.822 C21.681,13.845 20.428,11.015 21.417,8.515 C22.406,6.015 25.262,4.775 27.794,5.752 C28.309,5.951 28.566,6.526 28.364,7.038 C28.162,7.550 27.581,7.799 27.062,7.602 ZM22.200,15.717 C22.708,15.936 22.941,16.523 22.718,17.025 C22.076,18.481 22.749,20.184 24.221,20.820 C24.936,21.130 25.728,21.144 26.452,20.863 C27.177,20.582 27.747,20.039 28.059,19.333 C28.280,18.833 28.869,18.602 29.381,18.821 C29.889,19.041 30.122,19.626 29.899,20.129 C29.374,21.321 28.410,22.238 27.185,22.713 C26.603,22.938 25.995,23.050 25.388,23.050 C24.719,23.050 24.050,22.913 23.418,22.640 C20.933,21.564 19.793,18.688 20.879,16.229 C21.099,15.729 21.687,15.498 22.200,15.717 ZM10.930,24.196 C10.314,24.196 9.690,24.081 9.085,23.839 C6.571,22.830 5.355,19.985 6.375,17.496 C6.583,16.988 7.168,16.744 7.684,16.949 C8.198,17.156 8.445,17.735 8.237,18.244 C7.633,19.717 8.353,21.401 9.842,21.998 C11.334,22.597 13.034,21.883 13.637,20.411 C13.846,19.901 14.434,19.659 14.946,19.864 C15.460,20.070 15.708,20.649 15.499,21.158 C14.723,23.048 12.876,24.196 10.930,24.196 Z"/>
</svg>